<?xml version="1.0" standalone="yes"?>
<svg xmlns="http://www.w3.org/2000/svg" width="1001" height="997">
<path style="fill:#ffffff; stroke:none;" d="M0 0L0 25C43.8409 8.11224 79.193 32.7013 115 55C117.726 45.7574 113.114 37.7028 107 31C143.833 29.4188 176.302 45.2097 199 75L200 75C201.116 66.1253 199.192 59.2757 196 51C229.136 61.7821 258.904 83.2123 280 111L281 111C280.999 100.492 277.98 92.5728 274 83C314.499 92.6194 341.561 138.308 358 173C364.768 163.905 360.263 150.871 358 141C405.37 176.114 431.22 225.067 445 281L446 281L452 263C477.439 280.922 480.637 315.539 488.152 343C491.898 356.688 497.384 370.688 498 385L499 385L506.424 338L517 306L519 306L526 319L527 319C527 275.98 536.525 235.157 562.63 200C569.439 190.829 576.58 180.636 586 174L591 197L592 197C605.998 155.879 637.392 121.582 673 98L674 113C682.466 106.525 688.424 96.6153 696.089 89.1697C720.649 65.314 752.921 43.7727 788 41L788 62C816.352 42.0284 838.913 14.7587 876 11.1697C882.89 10.503 889.245 12.1276 896 13L892 28C909.933 15.7394 928.072 1.47583 951 1L926 0L870 0L675 0L0 0z"/>
<path style="fill:#01f4b3; stroke:none;" d="M892 28L896 13C853.926 4.84058 816.18 33.8204 788 62L788 41C739.867 43.0663 704.236 80.1697 674 113L673 102C661.162 110.339 651.236 122.764 641 133C622.106 151.894 598.476 169.737 592 197L591 197L588 187C577.629 194.306 568.965 205.035 560 214C554.444 219.556 547.269 225.067 543.414 232C528.933 258.041 527 290.014 527 319L526 319L519 306L517 306C506.172 332.042 504.08 357.636 499 385L498 385C497.405 356.195 483.459 325.92 477 298C459.668 310.209 444.997 329.003 430 344C426.317 347.683 415.209 355.409 415.207 361C415.205 364.621 420.24 368.471 422.424 371C429.325 378.993 436.313 386.89 443.08 395C466.301 422.831 492.535 452.916 508 486C521.308 481.787 533.75 470.73 545 462.709C573.589 442.326 600.317 418.973 626 395.089C709.612 317.337 785.947 232.921 861 147C857.081 163.93 846.516 179.719 837 194C819.998 219.515 801.129 243.762 781.13 267C733.467 322.384 682.501 374.5 628 423.166C594.902 452.72 559.386 484.033 520 505C521.59 513.811 528.459 521.689 533.333 529C544.702 546.052 557.321 562.077 570.197 578C573.691 582.321 583.111 597.793 589.039 597.793C595.894 597.793 607.349 581.651 612 577L657 532C663.895 525.105 673.848 517.903 678 509L609 497L609 496C618.907 495.568 628.262 491.361 638 489.754C668.548 484.714 710.498 480.683 730 453L712 446L712 445C725.258 443.945 743.601 440.087 755 433.005C769.528 423.979 781.92 407.08 794 395C804.871 384.129 818.145 373.571 827 361L820 359L820 358C848.078 349.973 869.087 319.913 889 300C896.018 292.982 908.84 284.415 910 274C900.651 277.887 892.364 281.542 882 281C908.493 261.361 934.401 229.832 942 197L919 200C944.26 175.825 968.98 144.598 962 107C953.499 112.807 948.514 115.999 938 116C957.454 87.5446 975.542 60.0547 973.961 24C973.597 15.708 970.848 7.9884 969 0C940.235 0 913.314 7.61517 892 28z"/>
<path style="fill:#ffffff; stroke:none;" d="M969 0C970.195 8.0946 973.341 15.7239 973.911 24C975.404 45.6931 967.894 67.1808 957.691 86C952.049 96.4083 942.852 105.408 938 116C948.241 116 954.413 114.24 962 107C965.317 133.246 955.855 157.59 939.551 178C933.286 185.843 924.861 192.037 919 200L942 197C930.358 232.718 907.071 254.617 882 281C891.414 282.593 901.951 278.68 910 274C907.621 287.814 897.391 301.063 888.025 310.996C869.055 331.115 845.622 347.488 820 358L820 359C831.156 363.097 840.897 361.55 852 358C823.943 402.862 764.188 438.26 712 445L712 446L730 453C704.308 478.689 671.419 484.075 637 489.754C627.57 491.31 618.549 495.22 609 496L609 497C635.658 501.949 672.925 499.908 695 518L681 525L681 526C738.154 526 786.163 544.162 827 585L804 590L804 591C841.258 603.687 884.91 635.875 902 672L887 673L887 674C920.468 698.809 958.632 742.545 959 787L939 786C943.36 795.404 952.794 802.795 959.113 811C977.765 835.222 994.188 863.557 987 895L972 890C985.574 911.724 999.982 929.948 1000 957L1001 957L1001 0L969 0z"/>
<path style="fill:#01fd8f; stroke:none;" d="M27 101L13 97C0.269295 142.302 39.9953 172.42 61 206L41 205C41.2808 238.925 65.0168 273.914 88.0008 297C95.3758 304.408 103.647 313.174 113 318L113 319L98 320C102.011 330.955 111.128 340.547 118.914 349C141.481 373.5 167.76 385.928 196 402L173 407C194.249 437.165 237.075 455.405 272 462.789C281.647 464.829 299.717 469.614 309 464.972C319.038 459.953 328.094 446.906 336 439L394 381L394 380L291 274.039L157 147C182.83 157.754 206.742 175.433 229 192.127C264.615 218.838 298.434 247.587 331 277.911C348.831 294.514 366.017 311.576 383.015 329C393.042 339.279 404.717 349.242 413 361C429.966 349.049 444.32 330.68 459 316C463.587 311.413 473.717 304.544 475.187 298C477.527 287.578 460.406 266.921 452 263L446 281L445 281C436.856 237.776 417.276 196.428 385.999 165C377.611 156.571 368.706 146.465 358 141C359.65 152.214 363.704 162.117 358 173C348.624 145.466 327.693 117.08 305 99.2107C296.247 92.3186 285.247 84.6858 274 83L281 111L280 111C274.934 101.222 265.279 92.6724 257 85.5795C239.48 70.5693 218.841 56.2842 196 51L200 75L199 75C182.765 43.7046 139.834 28.4085 107 31C112.139 38.802 117.311 45.1786 115 55C92.4427 35.4805 61.4918 19.1458 31 19.0008C23.3296 18.9643 7.35218 18.662 1.6034 24.7029C-2.26409 28.767 -0.0633278 40.9608 0.753858 46C4.22602 67.4112 14.1566 83.9585 27 101z"/>
<path style="fill:#ffffff; stroke:none;" d="M0 44L0 997L34 997C19.6829 968.978 29.6959 934.739 44.4275 909C49.9687 899.318 57.9738 890.846 63 881C52.8216 879.138 47.0541 883.499 39 889C38.4806 863.836 43.4285 842.656 58.8951 822C65.5415 813.124 77.1133 805.652 82 796L59 800C67.185 774.888 81.528 753.467 99.1698 734C105.305 727.23 113.465 722.237 119 715L91 722C101.627 683.146 144.755 653.674 180 639L180 637C168.933 633.492 159.995 636.383 149 638C183.486 598.4 232.842 554.418 289 552C284.345 545.972 278.403 544.062 271 544C295.005 512.755 340.717 511.497 376 505.675C388.561 503.603 400.303 497.71 413 496L413 495C387.392 493.9 359.957 492.757 335 486.37C324.885 483.782 313.165 480.691 305 474L319 467L319 466C261.961 466 213.751 447.751 173 407L196 402C186.221 394.099 171.883 389.87 161 383.189C136.317 368.037 111.739 345.808 98 320L113 319L113 318C79.488 292.744 41.9214 249.639 41 205L61 206C56.5563 195.505 45.5837 187.073 38.6543 178C20.6705 154.454 6.79358 127.085 13 97L27 101L8.31173 71L0 44z"/>
<path style="fill:#01fd8f; stroke:none;" d="M672 98C647.135 114.467 616.656 138.896 606 168C625.163 154.501 641.416 133.584 658 117C662.248 112.752 674.095 104.703 672 98z"/>
<path style="fill:#ffffff; stroke:none;" d="M156 146L157 147L156 146M157 147C166.609 160.632 182.634 171.981 195 183.17C214.734 201.025 233.529 219.951 253 238.089C309.217 290.457 363.63 346.253 414.285 404C433.692 426.125 452.706 448.442 470.373 472C473.846 476.631 487.562 490.472 486.27 496.471C485.64 499.399 480.29 501.426 478 502.8C470.568 507.26 463.107 511.754 456 516.72C427.123 536.896 399.204 558.595 373 582.169C315.875 633.56 262.435 688.953 214.4 749C189.459 780.177 162.47 813.842 147 851C159.533 841.775 169.284 827.248 180.039 816C205.458 789.416 230.621 762.583 256.039 736C331.696 656.879 411.444 581.393 500 517C514.368 550.344 542.887 580.435 565.92 608C620.213 672.976 681.969 733.075 747 787.247C769.637 806.104 793.022 824.385 818 840.05C831.009 848.209 844.775 856.817 860 860L860 859C830.553 838.865 804.444 811.054 778 787.17C718.263 733.213 660.416 677.265 605.914 618C583.414 593.533 561.602 568.088 542.291 541C534.588 530.194 523.781 517.852 520 505C531.735 500.704 542.884 491.651 553 484.421C573.732 469.606 593.689 453.75 613 437.13C677.598 381.538 737.524 320.483 792.08 255C810.782 232.553 828.928 209.069 844 184C850.785 172.715 859.04 160.268 861 147C851.84 154.387 844.623 165.164 836.845 174C821.239 191.728 805.659 209.475 789.83 227C731.736 291.319 671.452 355.335 606 412.282C576.16 438.244 544.206 469.076 508 486C504.527 475.029 496.024 464.519 489.667 455C474.001 431.545 456.152 409.619 438.08 388C382.272 321.237 317.627 260.045 249 206.576C229.628 191.483 209.812 177.003 189 163.95C179.067 157.72 168.352 150.27 157 147z"/>
<path style="fill:#01fd8f; stroke:none;" d="M605 168L606 169L605 168M546 228L575 200L586.802 187L586 174C580.085 176.758 576.181 182.129 572.001 187C562.103 198.533 550.27 213.179 546 228M545 228L546 229L545 228z"/>
<path style="fill:#01ecd1; stroke:none;" d="M907 281C885.972 302.028 859.109 322.711 842 347C862.574 339.467 883.682 319.282 896.522 302C900.267 296.959 908.089 287.538 907 281M841 347L842 348L841 347M757 432C785.457 424.217 816.358 400.923 835.424 379C841.163 372.402 848.542 366.167 852 358L826 362.693L802 386L757 432z"/>
<path style="fill:#01f4b3; stroke:none;" d="M393 381L338 436L309 466L319 466L319 467L305 474C310.96 480.934 323.405 483.495 332 485.848C357.528 492.836 386.659 494.456 413 495L413 496C400.245 497.042 388.434 502.936 376 505.485C348.607 511.102 321.737 511.462 296 524.248C286.839 528.799 275.901 534.63 271 544C278.5 544.16 283.519 547.001 289 552C276.748 552.253 264.5 556.797 253 560.667C213.604 573.929 171.281 602.341 149 638L180 637L180 639C152.476 646.929 122.866 670.553 105.898 693C99.537 701.415 92.8201 711.429 91 722L119 715C93.6653 738.335 67.0933 765.033 59 800L82 796C75.666 804.282 66.91 810.646 60.4252 819C43.9762 840.191 37.8701 862.685 39 889C48.0201 884.869 52.3432 879.741 63 881C45.3923 904.757 31.6197 928.297 27.5764 958C26.2086 968.048 26.1318 985.078 32.0887 993.852C35.9959 999.607 47.252 996.448 53 995.714C73.6783 993.075 93.7237 983.029 109 969L105 983C146.78 998.647 184.339 955.874 214 935L213 955C246.613 954.978 269.068 919.932 291 898L415 774L455 734C460.455 728.545 469.284 722.357 472.106 715C476.367 703.895 474 688.68 474 677L475 677L482 691L484 691C496.607 660.678 500 630.646 500 598L501 598L510.331 634L517 671C537.629 656.469 555.145 633.856 573 616L573 615C544.993 585.737 521.087 551.448 500 517C454.96 540.977 415.037 581.424 378 615.911C297.39 690.97 223.069 771.519 147 851C204.248 752.917 279.728 665.464 365 590.286C392.989 565.61 421.402 541.698 452 520.28C460.164 514.566 468.457 509.137 477 504C479.757 502.342 485.557 500.165 486.553 496.79C487.434 493.806 484.187 490.258 482.656 488C477.795 480.835 472.567 473.924 467.373 467C451.299 445.568 434.072 424.843 416.075 405C408.744 396.918 401.967 387.316 393 381z"/>
<path style="fill:#01ecd1; stroke:none;" d="M756 432L757 433L756 432M589 599L589 600C624.133 640.216 661.803 677.754 700 715.015C725.005 739.407 749.893 764.926 777 787L778 787L889 676L889 675L887 673L899 666L899 665C875.765 634.855 842.853 600.229 804 591L804 590L827 585C795.425 540.176 731.98 526 681 526L681 525L695 518C681.64 502.456 670.176 517.824 660 528L589 599z"/>
<path style="fill:#ffffff; stroke:none;" d="M500 598C500 617.717 499.556 637.678 495.113 657C492.391 668.836 487.316 679.485 484 691L482 691L475 677L474 677C474 734.325 455.944 782.056 415 823L410 800L409 800C396.277 837.377 364.386 880.988 328 898L327 883L326 883C303.473 917.056 255.937 954.882 213 955L214 935C204.685 939.343 197.11 948.985 189 955.338C166.029 973.334 135.202 991.487 105 983L109 969C88.9983 982.217 70.1696 995.931 45 996L45 997L1001 997L1001 964L1000 964C995.431 972.733 977.809 973.187 969 972.985C935.489 972.218 912.402 952.764 885 937C882.659 946.86 887.244 953.471 893 961C866.1 962.155 843.379 955.322 822 938.192C814.022 931.8 807.888 923.36 800 917L804 941C779.844 933.14 758.8 919.834 740 902.83C732.529 896.073 726.782 887.276 719 881C719.007 891.432 722.055 899.511 726 909C683.391 897.346 661.937 854.032 642 819C636.02 828.518 639.695 840.921 642 851C609.481 824.787 583.079 793.074 567.449 754C561.812 739.908 559.521 725.297 555 711C549.751 716.208 548.021 721.76 548 729C505.964 699.37 521.651 637.843 500 598z"/>
<path style="fill:#01ecd1; stroke:none;" d="M548 729C548.066 721.671 550.825 716.88 555 711C567.866 763.223 592.56 822.558 642 851C640.316 839.546 637.02 830.253 642 819C649.064 836.219 658.871 852.216 670.13 867C672.694 870.366 678.271 879.793 683.015 879.793C689.469 879.793 699.661 865.339 704 861C723.44 841.56 748.181 822.457 764 800C718.194 766.044 676.669 724.68 636.985 684C615.82 662.304 591.462 640.887 574 616C558.055 623.436 543.435 644.565 531 657C526.979 661.021 519.267 666.297 517.777 672C516.592 676.535 519.904 683.748 521.435 688C526.384 701.744 533.862 722.403 548 729z"/>
<path style="fill:#01e5ed; stroke:none;" d="M898 666L893 672L902 672L898 666M889 675L806 758L786 778C783.778 780.227 779.207 783.497 779.207 787C779.207 793.266 793.653 802.284 798 806.166C811.581 818.293 825.174 830.42 839 842.271C845.576 847.907 852.085 855.374 860 859L860 860C835.075 852.786 812.641 836.896 792 821.629C786.073 817.245 771.361 801.601 764 802.117C756.939 802.612 746.814 817.186 742 822L683 881L683 882C694.412 893.317 709.623 906.18 726 909L719 881C741.576 906.846 769.357 932.985 804 941L800 917C824.766 945.349 854.518 964.037 893 961C888.533 952.396 883.091 947.44 885 937C908.564 955.995 937.858 972.638 969 972.996C976.95 973.088 992.319 973.143 998.486 967.297C1003.17 962.861 1000.29 951.614 999.41 946C996.086 924.727 986.042 906.124 972 890L987 895C1000.75 851.634 960.79 817.302 939 786L959 787C958.883 744.578 922.826 697.375 889 675z"/>
<path style="fill:#01ecd1; stroke:none;" d="M471 717L315 873L265 923L239 950C265.003 942.888 288.293 924.708 307 906C313.76 899.24 322.058 891.844 326 883L327 883L328 898C337.768 894.908 346.344 886.833 354 880.271C376.7 860.814 401.915 829.827 409 800L410 800L415 823C439.331 805.861 455.803 773.57 465 746C467.52 738.446 473.785 724.769 471 717z"/>
<path style="fill:#ffffff; stroke:none;" d="M109 968L110 969L109 968z"/>
</svg>
